<?xml version="1.0" encoding="utf-8"?>
<!-- Generator: Adobe Illustrator 16.0.4, SVG Export Plug-In . SVG Version: 6.00 Build 0)  -->
<!DOCTYPE svg PUBLIC "-//W3C//DTD SVG 1.1//EN" "http://www.w3.org/Graphics/SVG/1.1/DTD/svg11.dtd" [
	<!ENTITY ns_flows "http://ns.adobe.com/Flows/1.0/">
	<!ENTITY ns_extend "http://ns.adobe.com/Extensibility/1.0/">
	<!ENTITY ns_ai "http://ns.adobe.com/AdobeIllustrator/10.0/">
	<!ENTITY ns_graphs "http://ns.adobe.com/Graphs/1.0/">
]>
<svg version="1.1" id="Capa_1" xmlns:x="&ns_extend;" xmlns:i="&ns_ai;" xmlns:graph="&ns_graphs;"
	 xmlns="http://www.w3.org/2000/svg" xmlns:xlink="http://www.w3.org/1999/xlink" xmlns:a="http://ns.adobe.com/AdobeSVGViewerExtensions/3.0/"
	 x="0px" y="0px" width="202.161px" height="54.229px" viewBox="0 0 202.161 54.229"
	 style="enable-background:new 0 0 202.161 54.229;" xml:space="preserve">
<g>
	<path d="M34.571,25.592v9.791c1.781-2.32,3.932-3.48,6.451-3.48c2.156,0,4.002,0.782,5.537,2.347s2.303,3.483,2.303,5.757
		c0,2.297-0.776,4.242-2.329,5.836s-3.39,2.391-5.511,2.391c-2.578,0-4.729-1.16-6.451-3.48v2.9h-3.463
		c-0.352,0-0.604-0.07-0.756-0.211s-0.229-0.316-0.229-0.527c0-0.223,0.076-0.401,0.229-0.536s0.404-0.202,0.756-0.202h1.986v-19.09
		h-1.986c-0.352,0-0.604-0.07-0.756-0.211s-0.229-0.322-0.229-0.545c0-0.211,0.076-0.387,0.229-0.527s0.404-0.211,0.756-0.211
		H34.571z M47.386,40.076c0-1.863-0.639-3.442-1.916-4.737s-2.771-1.942-4.482-1.942s-3.205,0.647-4.482,1.942
		s-1.916,2.874-1.916,4.737s0.639,3.442,1.916,4.737s2.771,1.942,4.482,1.942s3.205-0.647,4.482-1.942S47.386,41.939,47.386,40.076z
		"/>
	<path d="M65.983,47.652v-2.127c-2.145,1.805-4.436,2.707-6.873,2.707c-1.77,0-3.152-0.448-4.148-1.345s-1.494-1.995-1.494-3.296
		c0-1.43,0.656-2.678,1.969-3.744s3.229-1.6,5.748-1.6c0.68,0,1.418,0.044,2.215,0.132s1.658,0.226,2.584,0.413v-2.391
		c0-0.809-0.375-1.512-1.125-2.109s-1.875-0.896-3.375-0.896c-1.148,0-2.76,0.334-4.834,1.002c-0.375,0.117-0.615,0.176-0.721,0.176
		c-0.188,0-0.349-0.07-0.483-0.211s-0.202-0.316-0.202-0.527c0-0.199,0.059-0.357,0.176-0.475c0.164-0.176,0.826-0.416,1.986-0.721
		c1.828-0.492,3.211-0.738,4.148-0.738c1.863,0,3.316,0.46,4.359,1.38s1.564,1.96,1.564,3.12v9.773h1.969
		c0.363,0,0.621,0.067,0.773,0.202s0.229,0.313,0.229,0.536c0,0.211-0.076,0.387-0.229,0.527s-0.41,0.211-0.773,0.211H65.983z
		 M65.983,40.305c-0.691-0.199-1.424-0.346-2.197-0.439s-1.588-0.141-2.443-0.141c-2.145,0-3.82,0.463-5.027,1.389
		c-0.914,0.691-1.371,1.518-1.371,2.479c0,0.891,0.349,1.641,1.046,2.25s1.714,0.914,3.05,0.914c1.277,0,2.464-0.255,3.56-0.765
		s2.224-1.321,3.384-2.435V40.305z"/>
	<path d="M81.575,32.43v3.727c1.922-1.734,3.36-2.851,4.315-3.349s1.837-0.747,2.646-0.747c0.879,0,1.696,0.296,2.452,0.888
		s1.134,1.04,1.134,1.345c0,0.223-0.073,0.407-0.22,0.554s-0.331,0.22-0.554,0.22c-0.117,0-0.217-0.021-0.299-0.062
		s-0.234-0.173-0.457-0.396c-0.41-0.41-0.768-0.691-1.072-0.844s-0.604-0.229-0.896-0.229c-0.645,0-1.421,0.258-2.329,0.773
		s-2.481,1.775-4.72,3.779v8.086h6.539c0.363,0,0.621,0.067,0.773,0.202s0.229,0.313,0.229,0.536c0,0.211-0.076,0.387-0.229,0.527
		s-0.41,0.211-0.773,0.211H76.53c-0.352,0-0.604-0.067-0.756-0.202s-0.229-0.308-0.229-0.519c0-0.199,0.073-0.366,0.22-0.501
		s0.401-0.202,0.765-0.202h3.568V33.924h-2.725c-0.352,0-0.604-0.07-0.756-0.211s-0.229-0.322-0.229-0.545
		c0-0.211,0.073-0.387,0.22-0.527s0.401-0.211,0.765-0.211H81.575z"/>
	<path d="M100.173,32.43v2.232c1.031-1.043,1.963-1.764,2.795-2.162s1.77-0.598,2.812-0.598c1.125,0,2.15,0.24,3.076,0.721
		c0.656,0.352,1.251,0.935,1.784,1.749s0.8,1.649,0.8,2.505v9.299h1.248c0.352,0,0.604,0.067,0.756,0.202s0.229,0.313,0.229,0.536
		c0,0.211-0.076,0.387-0.229,0.527s-0.404,0.211-0.756,0.211h-3.955c-0.363,0-0.621-0.07-0.773-0.211s-0.229-0.316-0.229-0.527
		c0-0.223,0.076-0.401,0.229-0.536s0.41-0.202,0.773-0.202h1.23v-9.053c0-1.043-0.381-1.925-1.143-2.646s-1.781-1.081-3.059-1.081
		c-0.973,0-1.816,0.196-2.531,0.589s-1.734,1.368-3.059,2.927v9.264h1.67c0.352,0,0.604,0.067,0.756,0.202s0.229,0.313,0.229,0.536
		c0,0.211-0.076,0.387-0.229,0.527s-0.404,0.211-0.756,0.211h-4.816c-0.352,0-0.604-0.07-0.756-0.211s-0.229-0.316-0.229-0.527
		c0-0.223,0.076-0.401,0.229-0.536s0.404-0.202,0.756-0.202h1.67V33.924h-1.248c-0.352,0-0.604-0.07-0.756-0.211
		s-0.229-0.322-0.229-0.545c0-0.211,0.076-0.387,0.229-0.527s0.404-0.211,0.756-0.211H100.173z"/>
	<path d="M130.794,47.652v-2.127c-2.145,1.805-4.436,2.707-6.873,2.707c-1.77,0-3.152-0.448-4.148-1.345s-1.494-1.995-1.494-3.296
		c0-1.43,0.656-2.678,1.969-3.744s3.229-1.6,5.748-1.6c0.68,0,1.418,0.044,2.215,0.132s1.658,0.226,2.584,0.413v-2.391
		c0-0.809-0.375-1.512-1.125-2.109s-1.875-0.896-3.375-0.896c-1.148,0-2.76,0.334-4.834,1.002c-0.375,0.117-0.615,0.176-0.721,0.176
		c-0.188,0-0.349-0.07-0.483-0.211s-0.202-0.316-0.202-0.527c0-0.199,0.059-0.357,0.176-0.475c0.164-0.176,0.826-0.416,1.986-0.721
		c1.828-0.492,3.211-0.738,4.148-0.738c1.863,0,3.316,0.46,4.359,1.38s1.564,1.96,1.564,3.12v9.773h1.969
		c0.363,0,0.621,0.067,0.773,0.202s0.229,0.313,0.229,0.536c0,0.211-0.076,0.387-0.229,0.527s-0.41,0.211-0.773,0.211H130.794z
		 M130.794,40.305c-0.691-0.199-1.424-0.346-2.197-0.439s-1.588-0.141-2.443-0.141c-2.145,0-3.82,0.463-5.027,1.389
		c-0.914,0.691-1.371,1.518-1.371,2.479c0,0.891,0.349,1.641,1.046,2.25s1.714,0.914,3.05,0.914c1.277,0,2.464-0.255,3.56-0.765
		s2.224-1.321,3.384-2.435V40.305z"/>
	<path d="M140.796,44.049V29.951h-0.562c-0.867,0-1.485-0.167-1.854-0.501s-0.554-0.771-0.554-1.31s0.185-0.976,0.554-1.31
		s0.987-0.501,1.854-0.501h9.035c2.156,0,3.891,0.601,5.203,1.802s1.969,2.628,1.969,4.28c0,0.785-0.152,1.523-0.457,2.215
		s-0.768,1.33-1.389,1.916c1.137,0.68,1.989,1.474,2.558,2.382s0.853,1.937,0.853,3.085c0,0.914-0.205,1.764-0.615,2.549
		c-0.305,0.598-0.68,1.072-1.125,1.424c-0.598,0.492-1.33,0.894-2.197,1.204s-1.951,0.466-3.252,0.466h-10.582
		c-0.867,0-1.485-0.167-1.854-0.501s-0.554-0.771-0.554-1.31c0-0.527,0.188-0.958,0.562-1.292s0.99-0.501,1.846-0.501H140.796z
		 M144.399,35.189h3.955c1.418,0,2.596-0.357,3.533-1.072c0.633-0.48,0.949-1.078,0.949-1.793c0-0.633-0.299-1.187-0.896-1.661
		s-1.547-0.712-2.848-0.712h-4.693V35.189z M144.399,44.049h6.223c1.465,0,2.496-0.217,3.094-0.65
		c0.457-0.328,0.686-0.797,0.686-1.406c0-0.727-0.451-1.441-1.354-2.145s-2.197-1.055-3.885-1.055h-4.764V44.049z"/>
	<path d="M171.558,29.951v14.098h3.639c0.867,0,1.485,0.167,1.854,0.501s0.554,0.771,0.554,1.31c0,0.527-0.185,0.958-0.554,1.292
		s-0.987,0.501-1.854,0.501h-10.881c-0.867,0-1.485-0.167-1.854-0.501s-0.554-0.771-0.554-1.31c0-0.527,0.185-0.958,0.554-1.292
		s0.987-0.501,1.854-0.501h3.639V29.951h-3.639c-0.867,0-1.485-0.167-1.854-0.501s-0.554-0.771-0.554-1.31s0.185-0.976,0.554-1.31
		s0.987-0.501,1.854-0.501l10.881,0.018c0.867,0,1.485,0.164,1.854,0.492s0.554,0.762,0.554,1.301s-0.185,0.976-0.554,1.31
		s-0.987,0.501-1.854,0.501H171.558z"/>
	<path d="M193.108,29.951v14.098h2.426c0.867,0,1.485,0.167,1.854,0.501s0.554,0.771,0.554,1.31c0,0.527-0.185,0.958-0.554,1.292
		s-0.987,0.501-1.854,0.501h-8.438c-0.867,0-1.485-0.167-1.854-0.501s-0.554-0.771-0.554-1.31c0-0.527,0.185-0.958,0.554-1.292
		s0.987-0.501,1.854-0.501h2.408V29.951h-3.902v3.41c0,0.867-0.167,1.485-0.501,1.854s-0.771,0.554-1.31,0.554
		c-0.527,0-0.958-0.185-1.292-0.554s-0.501-0.987-0.501-1.854V26.33l18.668,0.018v7.014c0,0.867-0.167,1.485-0.501,1.854
		s-0.771,0.554-1.31,0.554c-0.527,0-0.958-0.185-1.292-0.554s-0.501-0.987-0.501-1.854v-3.41H193.108z"/>
</g>
<g>
	<path style="fill:#1F75AF;" d="M25,21.114c0,2.762-2.239,5-5,5H5c-2.762,0-5-2.239-5-5V6.115c0-2.762,2.239-5,5-5H20
		c2.762,0,5,2.239,5,5V21.114z"/>
	<path d="M25,48.114c0,2.762-2.239,5-5,5H5c-2.762,0-5-2.239-5-5V33.115c0-2.762,2.239-5,5-5H20c2.762,0,5,2.239,5,5V48.114z"/>
</g>
</svg>
